Coordinates
version=1
nRows=6
nColumns=46
inDegrees=yes

Units are S.I. units (second, meters, Newtons, ...)
Angles are in degrees.

endheader
time	pelvis_tilt	pelvis_list	pelvis_rotation	pelvis_tx	pelvis_ty	pelvis_tz	bb_angle	bb_tx	bb_ty	bb_tz	hip_flexion_r	hip_adduction_r	hip_rotation_r	knee_angle_r	knee_angle_r_beta	ankle_angle_r	subtalar_angle_r	mtp_angle_r	crank_angle_r	hip_flexion_l	hip_adduction_l	hip_rotation_l	knee_angle_l	knee_angle_l_beta	ankle_angle_l	subtalar_angle_l	mtp_angle_l	crank_angle_l	lumbar_extension	lumbar_bending	lumbar_rotation	arm_flex_r	arm_add_r	arm_rot_r	elbow_flex_r	pro_sup_r	wrist_flex_r	wrist_dev_r	arm_flex_l	arm_add_l	arm_rot_l	elbow_flex_l	pro_sup_l	wrist_flex_l	wrist_dev_l
      5.00000000	    -16.05868125	      2.33737509	     -6.74805574	      0.17138001	      1.04871240	     -0.23863861	      0.00000000	      0.50000000	      0.00000000	      0.25000000	     51.27519801	     -4.04611884	      1.14345693	     40.21458877	      0.70187698	     -5.04565082	      0.34122797	      0.00000000	      0.00000000	     69.37772909	     -5.44830732	     -0.33049885	    108.99398574	      1.90230392	    -11.99893658	    -18.51222557	      0.00000000	      0.00000000	    -61.95034748	     -2.64210265	     -3.04399003	     77.26240157	    -18.05287027	     32.18343975	     81.35183417	     51.08790884	      0.00000000	      0.00000000	     64.42286686	    -22.36146359	      8.95479966	     86.43429549	     50.60505863	      0.00000000	      0.00000000
      5.00500000	    -15.96351480	      2.66345393	     -6.47830537	      0.17190827	      1.04910670	     -0.23767745	      0.00000000	      0.50000000	      0.00000000	      0.25000000	     49.84145026	     -4.58624241	      0.88369455	     38.35192765	      0.66936741	     -6.85910207	      1.07503097	      0.00000000	      0.00000000	     70.70377490	     -5.15143021	     -0.24975997	    110.50704628	      1.92871180	    -11.44246076	    -18.56685832	      0.00000000	      0.00000000	    -61.86917756	     -2.94261748	     -3.59643688	     77.04118067	    -17.92439611	     32.09544357	     81.09623513	     51.04073728	      0.00000000	      0.00000000	     64.46537608	    -22.33157423	      9.18452189	     86.37190355	     50.61980233	      0.00000000	      0.00000000
      5.01000000	    -15.64827711	      2.41470629	     -5.95281934	      0.17234449	      1.05029105	     -0.23650010	      0.00000000	      0.50000000	      0.00000000	      0.25000000	     47.97931267	     -4.79900415	      0.08416093	     36.42248021	      0.63569220	     -9.17722799	      1.11183183	      0.00000000	      0.00000000	     71.89068772	     -4.98403813	      0.49021469	    111.95228645	      1.95393600	    -10.93630304	    -18.18309149	      0.00000000	      0.00000000	    -62.09325059	     -2.71743188	     -3.80838346	     77.01115598	    -17.35019560	     31.58184031	     80.44844312	     50.89666388	      0.00000000	      0.00000000	     64.64310581	    -22.60979691	      9.59257763	     86.25509496	     50.65637473	      0.00000000	      0.00000000
      5.01500000	    -15.66170536	      2.55446053	     -5.54645954	      0.17219534	      1.05123369	     -0.23546144	      0.00000000	      0.50000000	      0.00000000	      0.25000000	     46.61455962	     -5.19732763	     -0.38581149	     34.50532459	      0.60223152	    -11.49904062	      1.34447739	      0.00000000	      0.00000000	     73.38973745	     -4.66977538	      0.80933794	    113.19302711	      1.97559101	    -10.19438175	    -17.92801789	      0.00000000	      0.00000000	    -62.01827337	     -2.81302526	     -4.56167219	     77.03168537	    -16.13153022	     30.62559165	     79.14011034	     50.65065271	      0.00000000	      0.00000000	     65.11050622	    -23.36509463	     10.59320846	     86.16369510	     50.79221826	      0.00000000	      0.00000000
      5.02000000	    -15.81346273	      2.82386644	     -5.02067924	      0.17196924	      1.05215399	     -0.23485440	      0.00000000	      0.50000000	      0.00000000	      0.25000000	     45.55570358	     -5.86857464	     -1.04096044	     32.87996904	      0.57386372	    -13.69237662	      2.14633092	      0.00000000	      0.00000000	     75.02086592	     -4.12875819	      0.95550091	    114.26172954	      1.99424339	     -9.47579914	    -18.27435420	      0.00000000	      0.00000000	    -61.91311740	     -2.87332224	     -5.14666540	     77.00131738	    -16.11232049	     30.47728344	     79.02730118	     50.62679176	      0.00000000	      0.00000000	     65.44173742	    -23.36274339	     10.70097857	     86.26348649	     50.82103271	      0.00000000	      0.00000000
      5.02500000	    -15.82755831	      2.65958278	     -4.38638811	      0.17164223	      1.05373219	     -0.23433315	      0.00000000	      0.50000000	      0.00000000	      0.25000000	     44.16357419	     -6.22847418	     -2.09858740	     31.08377457	      0.54251421	    -16.37706136	      2.36309000	      0.00000000	      0.00000000	     76.53799113	     -3.65481824	      1.57654824	    115.18329266	      2.01032770	     -9.14269122	    -18.30785102	      0.00000000	      0.00000000	    -62.05986972	     -2.54723942	     -5.50730464	     77.05059087	    -15.73402832	     29.98490375	     78.74771000	     50.55962134	      0.00000000	      0.00000000	     65.78343934	    -23.71747449	     11.15250267	     86.41204590	     50.90759220	      0.00000000	      0.00000000
